<svg height="512pt" viewBox="0 0 512 512" width="512pt" xmlns="http://www.w3.org/2000/svg"><path d="m366.933594 213.332031h-51.199219c-4.710937 0-8.535156-3.8125-8.535156-8.53125v-51.199219c0-4.71875 3.824219-8.535156 8.535156-8.535156h51.199219c4.710937 0 8.53125 3.816406 8.53125 8.535156v51.199219c0 4.71875-3.820313 8.53125-8.53125 8.53125zm-42.667969-17.066406h34.132813v-34.132813h-34.132813zm0 0"/><path d="m452.265625 213.332031h-51.199219c-4.710937 0-8.53125-3.8125-8.53125-8.53125v-51.199219c0-4.71875 3.820313-8.535156 8.53125-8.535156h51.199219c4.710937 0 8.535156 3.816406 8.535156 8.535156v51.199219c0 4.71875-3.824219 8.53125-8.535156 8.53125zm-42.664063-17.066406h34.132813v-34.132813h-34.132813zm0 0"/><path d="m110.933594 298.667969h-51.199219c-4.710937 0-8.535156-3.816407-8.535156-8.535157v-51.199218c0-4.71875 3.824219-8.535156 8.535156-8.535156h51.199219c4.710937 0 8.53125 3.816406 8.53125 8.535156v51.199218c0 4.71875-3.820313 8.535157-8.53125 8.535157zm-42.667969-17.066407h34.132813v-34.136718h-34.132813zm0 0"/><path d="m196.265625 298.667969h-51.199219c-4.710937 0-8.53125-3.816407-8.53125-8.535157v-51.199218c0-4.71875 3.820313-8.535156 8.53125-8.535156h51.199219c4.710937 0 8.535156 3.816406 8.535156 8.535156v51.199218c0 4.71875-3.824219 8.535157-8.535156 8.535157zm-42.664063-17.066407h34.132813v-34.136718h-34.132813zm0 0"/><path d="m281.601562 298.667969h-51.203124c-4.707032 0-8.53125-3.816407-8.53125-8.535157v-51.199218c0-4.71875 3.824218-8.535156 8.53125-8.535156h51.203124c4.707032 0 8.53125 3.816406 8.53125 8.535156v51.199218c0 4.71875-3.824218 8.535157-8.53125 8.535157zm-42.667968-17.066407h34.132812v-34.136718h-34.132812zm0 0"/><path d="m110.933594 384h-51.199219c-4.710937 0-8.535156-3.8125-8.535156-8.535156v-51.199219c0-4.71875 3.824219-8.53125 8.535156-8.53125h51.199219c4.710937 0 8.53125 3.8125 8.53125 8.53125v51.199219c0 4.722656-3.820313 8.535156-8.53125 8.535156zm-42.667969-17.066406h34.132813v-34.132813h-34.132813zm0 0"/><path d="m196.265625 384h-51.199219c-4.710937 0-8.53125-3.8125-8.53125-8.535156v-51.199219c0-4.71875 3.820313-8.53125 8.53125-8.53125h51.199219c4.710937 0 8.535156 3.8125 8.535156 8.53125v51.199219c0 4.722656-3.824219 8.535156-8.535156 8.535156zm-42.664063-17.066406h34.132813v-34.132813h-34.132813zm0 0"/><path d="m281.601562 384h-51.203124c-4.707032 0-8.53125-3.8125-8.53125-8.535156v-51.199219c0-4.71875 3.824218-8.53125 8.53125-8.53125h51.203124c4.707032 0 8.53125 3.8125 8.53125 8.53125v51.199219c0 4.722656-3.824218 8.535156-8.53125 8.535156zm-42.667968-17.066406h34.132812v-34.132813h-34.132812zm0 0"/><path d="m110.933594 469.332031h-51.199219c-4.710937 0-8.535156-3.8125-8.535156-8.53125v-51.199219c0-4.71875 3.824219-8.535156 8.535156-8.535156h51.199219c4.710937 0 8.53125 3.816406 8.53125 8.535156v51.199219c0 4.71875-3.820313 8.53125-8.53125 8.53125zm-42.667969-17.066406h34.132813v-34.132813h-34.132813zm0 0"/><path d="m196.265625 469.332031h-51.199219c-4.710937 0-8.53125-3.8125-8.53125-8.53125v-51.199219c0-4.71875 3.820313-8.535156 8.53125-8.535156h51.199219c4.710937 0 8.535156 3.816406 8.535156 8.535156v51.199219c0 4.71875-3.824219 8.53125-8.535156 8.53125zm-42.664063-17.066406h34.132813v-34.132813h-34.132813zm0 0"/><path d="m281.601562 469.332031h-51.203124c-4.707032 0-8.53125-3.8125-8.53125-8.53125v-51.199219c0-4.71875 3.824218-8.535156 8.53125-8.535156h51.203124c4.707032 0 8.53125 3.816406 8.53125 8.535156v51.199219c0 4.71875-3.824218 8.53125-8.53125 8.53125zm-42.667968-17.066406h34.132812v-34.132813h-34.132812zm0 0"/><path d="m366.933594 298.667969h-51.199219c-4.710937 0-8.535156-3.816407-8.535156-8.535157v-51.199218c0-4.71875 3.824219-8.535156 8.535156-8.535156h51.199219c4.710937 0 8.53125 3.816406 8.53125 8.535156v51.199218c0 4.71875-3.820313 8.535157-8.53125 8.535157zm-42.667969-17.066407h34.132813v-34.136718h-34.132813zm0 0"/><path d="m366.933594 384h-51.199219c-4.710937 0-8.535156-3.8125-8.535156-8.535156v-51.199219c0-4.71875 3.824219-8.53125 8.535156-8.53125h51.199219c4.710937 0 8.53125 3.8125 8.53125 8.53125v51.199219c0 4.722656-3.820313 8.535156-8.53125 8.535156zm-42.667969-17.066406h34.132813v-34.132813h-34.132813zm0 0"/><path d="m366.933594 469.332031h-51.199219c-4.710937 0-8.535156-3.8125-8.535156-8.53125v-51.199219c0-4.71875 3.824219-8.535156 8.535156-8.535156h51.199219c4.710937 0 8.53125 3.816406 8.53125 8.535156v51.199219c0 4.71875-3.820313 8.53125-8.53125 8.53125zm-42.667969-17.066406h34.132813v-34.132813h-34.132813zm0 0"/><path d="m452.265625 298.667969h-51.199219c-4.710937 0-8.53125-3.816407-8.53125-8.535157v-51.199218c0-4.71875 3.820313-8.535156 8.53125-8.535156h51.199219c4.710937 0 8.535156 3.816406 8.535156 8.535156v51.199218c0 4.71875-3.824219 8.535157-8.535156 8.535157zm-42.664063-17.066407h34.132813v-34.136718h-34.132813zm0 0"/><path d="m452.265625 384h-51.199219c-4.710937 0-8.53125-3.8125-8.53125-8.535156v-51.199219c0-4.71875 3.820313-8.53125 8.53125-8.53125h51.199219c4.710937 0 8.535156 3.8125 8.535156 8.53125v51.199219c0 4.722656-3.824219 8.535156-8.535156 8.535156zm-42.664063-17.066406h34.132813v-34.132813h-34.132813zm0 0"/><path d="m452.265625 469.332031h-51.199219c-4.710937 0-8.53125-3.8125-8.53125-8.53125v-51.199219c0-4.71875 3.820313-8.535156 8.53125-8.535156h51.199219c4.710937 0 8.535156 3.816406 8.535156 8.535156v51.199219c0 4.71875-3.824219 8.53125-8.535156 8.53125zm-42.664063-17.066406h34.132813v-34.132813h-34.132813zm0 0"/><path d="m426.667969 51.199219c-4.710938 0-8.535157-3.8125-8.535157-8.53125 0-23.527344 19.140626-42.667969 42.667969-42.667969 4.710938 0 8.53125 3.8125 8.53125 8.535156 0 4.71875-3.820312 8.53125-8.53125 8.53125-14.113281 0-25.601562 11.484375-25.601562 25.601563 0 4.71875-3.820313 8.53125-8.53125 8.53125zm0 0"/><path d="m452.265625 85.332031h-51.199219c-4.710937 0-8.53125-3.8125-8.53125-8.53125s3.820313-8.535156 8.53125-8.535156h51.199219c4.710937 0 8.535156 3.816406 8.535156 8.535156s-3.824219 8.53125-8.535156 8.53125zm0 0"/><path d="m426.667969 85.332031c-4.710938 0-8.535157-3.8125-8.535157-8.53125v-34.132812c0-4.71875 3.824219-8.535157 8.535157-8.535157 4.710937 0 8.53125 3.816407 8.53125 8.535157v34.132812c0 4.71875-3.820313 8.53125-8.53125 8.53125zm0 0"/><path d="m110.933594 221.867188c-61.167969 0-110.933594-49.765626-110.933594-110.933594 0-61.167969 49.765625-110.933594 110.933594-110.933594 61.167968 0 110.933594 49.765625 110.933594 110.933594 0 61.167968-49.765626 110.933594-110.933594 110.933594zm0-204.800782c-51.753906 0-93.867188 42.113282-93.867188 93.867188s42.113282 93.867187 93.867188 93.867187 93.867187-42.113281 93.867187-93.867187-42.113281-93.867188-93.867187-93.867188zm0 0"/><path d="m503.464844 119.464844h-290.132813c-4.710937 0-8.53125-3.8125-8.53125-8.53125 0-23.058594-8.542969-45.277344-24.046875-62.566406-2.246094-2.507813-2.816406-6.101563-1.441406-9.171876 1.371094-3.074218 4.425781-5.0625 7.789062-5.0625h288.632813c20 0 36.265625 16.265626 36.265625 36.265626v40.535156c0 4.71875-3.824219 8.53125-8.535156 8.53125zm-281.929688-17.066406h273.398438v-32c0-10.578126-8.609375-19.199219-19.199219-19.199219h-271.429687c9.882812 15.386719 15.8125 32.949219 17.230468 51.199219zm0 0"/><path d="m477.753906 512h-443.507812c-18.886719 0-34.246094-15.367188-34.246094-34.253906v-366.8125c0-4.71875 3.824219-8.535156 8.535156-8.535156 4.707032 0 8.53125 3.816406 8.53125 8.535156 0 51.753906 42.113282 93.867187 93.867188 93.867187s93.867187-42.113281 93.867187-93.867187c0-4.71875 3.820313-8.535156 8.53125-8.535156h290.132813c4.710937 0 8.535156 3.816406 8.535156 8.535156v366.8125c0 18.886718-15.359375 34.253906-34.246094 34.253906zm-460.6875-342v307.746094c0 9.480468 7.707032 17.1875 17.179688 17.1875h443.507812c9.472656 0 17.179688-7.707032 17.179688-17.1875v-358.28125h-273.390625c-4.371094 57.199218-52.308594 102.402344-110.609375 102.402344-39.476563 0-74.199219-20.726563-93.867188-51.867188zm0 0"/><path d="m110.933594 42.667969c-4.710938 0-8.535156-3.816407-8.535156-8.535157v-25.597656c0-4.722656 3.824218-8.535156 8.535156-8.535156 4.710937 0 8.53125 3.8125 8.53125 8.535156v25.597656c0 4.71875-3.820313 8.535157-8.53125 8.535157zm0 0"/><path d="m110.933594 221.867188c-4.710938 0-8.535156-3.816407-8.535156-8.535157v-25.597656c0-4.71875 3.824218-8.535156 8.535156-8.535156 4.710937 0 8.53125 3.816406 8.53125 8.535156v25.597656c0 4.71875-3.820313 8.535157-8.53125 8.535157zm0 0"/><path d="m213.332031 119.464844h-25.597656c-4.710937 0-8.535156-3.8125-8.535156-8.53125s3.824219-8.535156 8.535156-8.535156h25.597656c4.710938 0 8.535157 3.816406 8.535157 8.535156s-3.824219 8.53125-8.535157 8.53125zm0 0"/><path d="m34.132812 119.464844h-25.597656c-4.710937 0-8.535156-3.8125-8.535156-8.53125s3.824219-8.535156 8.535156-8.535156h25.597656c4.710938 0 8.535157 3.816406 8.535157 8.535156s-3.824219 8.53125-8.535157 8.53125zm0 0"/><path d="m51.199219 59.734375c-2.183594 0-4.367188-.835937-6.03125-2.5l-12.671875-12.671875c-3.335938-3.339844-3.335938-8.730469 0-12.066406 3.328125-3.335938 8.738281-3.335938 12.066406 0l12.671875 12.671875c3.335937 3.335937 3.335937 8.730469 0 12.066406-1.664063 1.664063-3.851563 2.5-6.035156 2.5zm0 0"/><path d="m183.339844 191.871094c-2.1875 0-4.371094-.835938-6.035156-2.5l-12.671876-12.671875c-3.335937-3.335938-3.335937-8.730469 0-12.066407 3.328126-3.335937 8.738282-3.335937 12.066407 0l12.671875 12.671876c3.335937 3.335937 3.335937 8.730468 0 12.066406-1.664063 1.671875-3.847656 2.5-6.03125 2.5zm0 0"/><path d="m170.667969 59.734375c-2.1875 0-4.371094-.835937-6.035157-2.5-3.335937-3.335937-3.335937-8.730469 0-12.066406l12.671876-12.671875c3.328124-3.335938 8.738281-3.335938 12.066406 0 3.335937 3.335937 3.335937 8.726562 0 12.066406l-12.671875 12.671875c-1.664063 1.664063-3.847657 2.5-6.03125 2.5zm0 0"/><path d="m38.527344 191.871094c-2.183594 0-4.367188-.835938-6.03125-2.5-3.335938-3.335938-3.335938-8.730469 0-12.066406l12.671875-12.671876c3.328125-3.335937 8.738281-3.335937 12.066406 0 3.335937 3.335938 3.335937 8.730469 0 12.066407l-12.671875 12.671875c-1.664062 1.671875-3.851562 2.5-6.035156 2.5zm0 0"/><path d="m136.535156 119.464844h-25.601562c-4.710938 0-8.535156-3.8125-8.535156-8.53125s3.824218-8.535156 8.535156-8.535156h25.601562c4.707032 0 8.53125 3.816406 8.53125 8.535156s-3.824218 8.53125-8.53125 8.53125zm0 0"/><path d="m110.933594 119.464844c-4.710938 0-8.535156-3.8125-8.535156-8.53125v-42.667969c0-4.71875 3.824218-8.53125 8.535156-8.53125 4.710937 0 8.53125 3.8125 8.53125 8.53125v42.667969c0 4.71875-3.820313 8.53125-8.53125 8.53125zm0 0"/></svg>