<?xml version="1.0" encoding="iso-8859-1"?>
<!-- Generator: Adobe Illustrator 19.0.0, SVG Export Plug-In . SVG Version: 6.00 Build 0)  -->
<svg version="1.1" id="Capa_1" xmlns="http://www.w3.org/2000/svg" xmlns:xlink="http://www.w3.org/1999/xlink" x="0px" y="0px"
	 viewBox="0 0 469.333 469.333" style="enable-background:new 0 0 469.333 469.333;" xml:space="preserve">
<g>
	<g>
		<g>
			<path d="M426.667,42.667h-64v-32C362.667,4.771,357.896,0,352,0c-5.896,0-10.667,4.771-10.667,10.667v32h-192v-32
				C149.333,4.771,144.562,0,138.667,0S128,4.771,128,10.667v32H42.667C19.135,42.667,0,61.802,0,85.333v341.333
				c0,23.531,19.135,42.667,42.667,42.667h309.302c2.833,0,5.542-1.125,7.542-3.125l106.698-106.667c2-2,3.125-4.708,3.125-7.542
				V85.333C469.333,61.802,450.198,42.667,426.667,42.667z M362.667,432.891V384c0-11.76,9.573-21.333,21.333-21.333h48.911
				L362.667,432.891z M448,341.333h-64c-23.531,0-42.667,19.135-42.667,42.667v64H42.667c-11.76,0-21.333-9.573-21.333-21.333v-256
				H448V341.333z M448,149.333H21.333v-64C21.333,73.573,30.906,64,42.667,64H128v21.333c-11.76,0-21.333,9.573-21.333,21.333
				S116.24,128,128,128c11.76,0,21.333-9.573,21.333-21.333V64h192v21.333c-11.76,0-21.333,9.573-21.333,21.333
				S329.573,128,341.333,128s21.333-9.573,21.333-21.333V64h64C438.427,64,448,73.573,448,85.333V149.333z"/>
			<path d="M227.156,402.24c2.083,2.063,4.792,3.094,7.51,3.094s5.427-1.031,7.51-3.094l80.406-79.656
				c12.094-12.073,18.75-28.146,18.75-45.25c0-35.292-28.708-64-64-64c-16.01,0-31.021,5.885-42.667,16.469
				c-11.646-10.583-26.656-16.469-42.667-16.469c-35.292,0-64,28.708-64,64c0,17.104,6.656,33.177,18.781,45.281L227.156,402.24z
				 M192,234.667c13.479,0,25.906,6.313,34.115,17.333c4.021,5.396,13.083,5.396,17.104,0c8.208-11.021,20.635-17.333,34.115-17.333
				c23.531,0,42.667,19.135,42.667,42.667c0,11.396-4.438,22.115-12.469,30.135l-72.865,72.188L161.833,307.5
				c-8.063-8.052-12.5-18.771-12.5-30.167C149.333,253.802,168.469,234.667,192,234.667z"/>
		</g>
	</g>
</g>
<g>
</g>
<g>
</g>
<g>
</g>
<g>
</g>
<g>
</g>
<g>
</g>
<g>
</g>
<g>
</g>
<g>
</g>
<g>
</g>
<g>
</g>
<g>
</g>
<g>
</g>
<g>
</g>
<g>
</g>
</svg>
