<svg height="512pt" viewBox="-70 0 512 512.002" width="512pt" xmlns="http://www.w3.org/2000/svg"><path d="m185.683594 0c-18.460938 0-33.480469 15.019531-33.480469 33.480469v7.460937h-25.5c-5.753906 0-10.777344 3.167969-13.433594 7.851563h-77.425781c-19.765625 0-35.84375 16.078125-35.84375 35.84375v391.523437c0 19.761719 16.078125 35.84375 35.84375 35.84375h299.675781c19.765625 0 35.84375-16.082031 35.84375-35.84375v-202.660156c0-4.140625-3.355469-7.5-7.5-7.5s-7.5 3.359375-7.5 7.5v202.65625c0 11.492188-9.351562 20.84375-20.84375 20.84375h-299.675781c-11.492188 0-20.84375-9.351562-20.84375-20.84375v-391.519531c0-11.496094 9.351562-20.84375 20.84375-20.84375h75.417969v16.492187h-69.746094c-5.527344 0-10.023437 4.496094-10.023437 10.019532v380.179687c0 5.527344 4.496093 10.023437 10.023437 10.023437h126.664063c4.144531 0 7.5-3.359374 7.5-7.5 0-4.144531-3.355469-7.5-7.5-7.5h-121.6875v-370.222656h65.027343c1.402344 7.445313 7.949219 12.613282 15.183594 12.613282h117.957031c7.480469 0 13.835938-5.421876 15.183594-12.613282h65.027344v370.222656h-121.6875c-4.144532 0-7.5 3.355469-7.5 7.5 0 4.140626 3.355468 7.5 7.5 7.5h126.664062c5.527344 0 10.023438-4.496093 10.023438-10.023437v-380.179687c0-5.523438-4.496094-10.019532-10.023438-10.019532h-69.746094v-16.492187h75.417969c11.492188 0 20.84375 9.351562 20.84375 20.84375v153.863281c0 4.144531 3.355469 7.5 7.5 7.5s7.5-3.355469 7.5-7.5v-153.863281c0-19.765625-16.078125-35.84375-35.84375-35.84375h-77.425781c-2.65625-4.683594-7.675781-7.855469-13.433594-7.855469h-25.496094v-7.457031c0-18.460938-15.019531-33.480469-33.480468-33.480469zm-18.480469 33.480469c0-10.1875 8.289063-18.480469 18.480469-18.480469 10.1875 0 18.480468 8.292969 18.480468 18.480469v7.460937h-36.960937zm77.457031 22.460937c.222656 0 .425782.203125.4375.421875 0 .0625 0 .125.003906.1875v35.910157c0 .226562-.214843.441406-.441406.441406h-117.957031c-.226563 0-.441406-.214844-.441406-.441406 0-20.515626 0-15.417969 0-35.933594.003906-.054688.003906-.105469.003906-.160156.007813-.222657.214844-.425782.4375-.425782zm0 0"/><path d="m202.660156 134.148438h-33.957031c-7.203125 0-13.066406 5.863281-13.066406 13.066406v19.902344h-19.902344c-7.203125 0-13.0625 5.859374-13.0625 13.066406v33.957031c0 7.203125 5.859375 13.0625 13.0625 13.0625h19.902344v19.902344c0 7.203125 5.863281 13.066406 13.066406 13.066406h33.957031c7.203125 0 13.066406-5.863281 13.066406-13.066406v-19.902344h19.902344c7.203125 0 13.0625-5.859375 13.0625-13.0625v-33.957031c0-7.207032-5.859375-13.066406-13.0625-13.066406h-19.902344v-19.902344c0-7.203125-5.863281-13.066406-13.066406-13.066406zm31.03125 47.96875v30.085937h-19.898437c-7.207031 0-13.066407 5.863281-13.066407 13.066406v19.902344h-30.089843v-19.902344c0-7.203125-5.859375-13.066406-13.0625-13.066406h-19.902344v-30.085937h19.902344c7.203125 0 13.0625-5.859376 13.0625-13.066407v-19.902343h30.089843v19.902343c0 7.207031 5.859376 13.066407 13.066407 13.066407zm0 0"/><path d="m69.789062 295.800781c0 4.144531 3.359376 7.5 7.5 7.5h216.785157c4.144531 0 7.5-3.355469 7.5-7.5s-3.355469-7.5-7.5-7.5h-216.785157c-4.140624 0-7.5 3.355469-7.5 7.5zm0 0"/><path d="m77.289062 334.109375h216.785157c4.144531 0 7.5-3.359375 7.5-7.5 0-4.144531-3.355469-7.503906-7.5-7.503906h-216.785157c-4.140624 0-7.5 3.359375-7.5 7.503906 0 4.140625 3.359376 7.5 7.5 7.5zm0 0"/><path d="m77.289062 364.917969h216.785157c4.144531 0 7.5-3.359375 7.5-7.5 0-4.144531-3.355469-7.5-7.5-7.5h-216.785157c-4.140624 0-7.5 3.355469-7.5 7.5 0 4.140625 3.359376 7.5 7.5 7.5zm0 0"/><path d="m77.289062 395.726562h216.785157c4.144531 0 7.5-3.359374 7.5-7.5 0-4.144531-3.355469-7.5-7.5-7.5h-216.785157c-4.140624 0-7.5 3.355469-7.5 7.5 0 4.140626 3.359376 7.5 7.5 7.5zm0 0"/><path d="m77.289062 426.535156h216.785157c4.144531 0 7.5-3.359375 7.5-7.5 0-4.144531-3.355469-7.503906-7.5-7.503906h-216.785157c-4.140624 0-7.5 3.359375-7.5 7.503906 0 4.140625 3.359376 7.5 7.5 7.5zm0 0"/></svg>